<svg width="50" height="50" viewBox="0 0 50 50" fill="none" xmlns="http://www.w3.org/2000/svg">
<rect width="50" height="50" rx="25" fill="white" fill-opacity="0.5"/>
<rect x="4" y="4" width="42" height="42" rx="21" fill="white"/>
<path d="M17.255 19.8182V30H15.1023V21.8615H15.0426L12.7109 23.3232V21.4141L15.2315 19.8182H17.255ZM23.3588 19.679C23.8825 19.679 24.3863 19.7668 24.8702 19.9425C25.3574 20.1181 25.7916 20.3982 26.1728 20.7827C26.5572 21.1671 26.8605 21.6776 27.0826 22.3139C27.3079 22.947 27.4223 23.7242 27.4256 24.6456C27.4256 25.5107 27.3278 26.2829 27.1323 26.9624C26.94 27.6385 26.6633 28.2135 26.302 28.6875C25.9408 29.1615 25.5049 29.5227 24.9945 29.7713C24.4841 30.0166 23.914 30.1392 23.2843 30.1392C22.6048 30.1392 22.0049 30.0083 21.4846 29.7464C20.9642 29.4813 20.5449 29.1217 20.2267 28.6676C19.9119 28.2102 19.7213 27.6965 19.655 27.1264H21.7779C21.8607 27.4976 22.0347 27.786 22.2999 27.9915C22.565 28.1937 22.8932 28.2947 23.2843 28.2947C23.9471 28.2947 24.4509 28.0064 24.7956 27.4297C25.1403 26.8497 25.3143 26.0559 25.3176 25.0483H25.248C25.0956 25.3466 24.8901 25.6035 24.6316 25.8189C24.373 26.031 24.0764 26.1951 23.7417 26.3111C23.4102 26.4271 23.0572 26.4851 22.6827 26.4851C22.0828 26.4851 21.5475 26.3442 21.0769 26.0625C20.6062 25.7808 20.235 25.393 19.9632 24.8991C19.6915 24.4053 19.5556 23.8419 19.5556 23.2088C19.5523 22.526 19.7097 21.9179 20.0279 21.3842C20.3461 20.8506 20.7902 20.433 21.3603 20.1314C21.9337 19.8265 22.5998 19.6757 23.3588 19.679ZM23.3738 21.3693C23.039 21.3693 22.7407 21.4489 22.4789 21.608C22.2203 21.767 22.0149 21.9808 21.8624 22.2493C21.7132 22.5178 21.6403 22.8177 21.6436 23.1491C21.6436 23.4839 21.7166 23.7855 21.8624 24.054C22.0115 24.3191 22.2137 24.5312 22.4689 24.6903C22.7275 24.8461 23.0224 24.924 23.3539 24.924C23.6025 24.924 23.8328 24.8776 24.0449 24.7848C24.257 24.692 24.441 24.5644 24.5968 24.402C24.7559 24.2363 24.8801 24.0457 24.9696 23.8303C25.0591 23.6148 25.1039 23.3861 25.1039 23.1442C25.1006 22.8227 25.0243 22.5277 24.8752 22.2592C24.726 21.9908 24.5205 21.7753 24.2587 21.6129C23.9969 21.4505 23.7019 21.3693 23.3738 21.3693ZM32.601 19.679C33.1247 19.679 33.6285 19.7668 34.1124 19.9425C34.5996 20.1181 35.0338 20.3982 35.415 20.7827C35.7994 21.1671 36.1027 21.6776 36.3248 22.3139C36.5501 22.947 36.6645 23.7242 36.6678 24.6456C36.6678 25.5107 36.57 26.2829 36.3745 26.9624C36.1822 27.6385 35.9055 28.2135 35.5442 28.6875C35.1829 29.1615 34.7471 29.5227 34.2367 29.7713C33.7263 30.0166 33.1562 30.1392 32.5265 30.1392C31.847 30.1392 31.2471 30.0083 30.7267 29.7464C30.2064 29.4813 29.7871 29.1217 29.4689 28.6676C29.1541 28.2102 28.9635 27.6965 28.8972 27.1264H31.0201C31.1029 27.4976 31.2769 27.786 31.5421 27.9915C31.8072 28.1937 32.1354 28.2947 32.5265 28.2947C33.1893 28.2947 33.6931 28.0064 34.0378 27.4297C34.3825 26.8497 34.5565 26.0559 34.5598 25.0483H34.4902C34.3378 25.3466 34.1323 25.6035 33.8738 25.8189C33.6152 26.031 33.3186 26.1951 32.9838 26.3111C32.6524 26.4271 32.2994 26.4851 31.9249 26.4851C31.325 26.4851 30.7897 26.3442 30.3191 26.0625C29.8484 25.7808 29.4772 25.393 29.2054 24.8991C28.9337 24.4053 28.7978 23.8419 28.7978 23.2088C28.7944 22.526 28.9519 21.9179 29.2701 21.3842C29.5882 20.8506 30.0324 20.433 30.6025 20.1314C31.1758 19.8265 31.842 19.6757 32.601 19.679ZM32.6159 21.3693C32.2812 21.3693 31.9829 21.4489 31.7211 21.608C31.4625 21.767 31.257 21.9808 31.1046 22.2493C30.9554 22.5178 30.8825 22.8177 30.8858 23.1491C30.8858 23.4839 30.9587 23.7855 31.1046 24.054C31.2537 24.3191 31.4559 24.5312 31.7111 24.6903C31.9696 24.8461 32.2646 24.924 32.5961 24.924C32.8446 24.924 33.075 24.8776 33.2871 24.7848C33.4992 24.692 33.6832 24.5644 33.839 24.402C33.998 24.2363 34.1223 24.0457 34.2118 23.8303C34.3013 23.6148 34.3461 23.3861 34.3461 23.1442C34.3427 22.8227 34.2665 22.5277 34.1174 22.2592C33.9682 21.9908 33.7627 21.7753 33.5009 21.6129C33.2391 21.4505 32.9441 21.3693 32.6159 21.3693Z" fill="#021A84"/>
<path d="M17.255 19.8182V30H15.1023V21.8615H15.0426L12.7109 23.3232V21.4141L15.2315 19.8182H17.255ZM23.3588 19.679C23.8825 19.679 24.3863 19.7668 24.8702 19.9425C25.3574 20.1181 25.7916 20.3982 26.1728 20.7827C26.5572 21.1671 26.8605 21.6776 27.0826 22.3139C27.3079 22.947 27.4223 23.7242 27.4256 24.6456C27.4256 25.5107 27.3278 26.2829 27.1323 26.9624C26.94 27.6385 26.6633 28.2135 26.302 28.6875C25.9408 29.1615 25.5049 29.5227 24.9945 29.7713C24.4841 30.0166 23.914 30.1392 23.2843 30.1392C22.6048 30.1392 22.0049 30.0083 21.4846 29.7464C20.9642 29.4813 20.5449 29.1217 20.2267 28.6676C19.9119 28.2102 19.7213 27.6965 19.655 27.1264H21.7779C21.8607 27.4976 22.0347 27.786 22.2999 27.9915C22.565 28.1937 22.8932 28.2947 23.2843 28.2947C23.9471 28.2947 24.4509 28.0064 24.7956 27.4297C25.1403 26.8497 25.3143 26.0559 25.3176 25.0483H25.248C25.0956 25.3466 24.8901 25.6035 24.6316 25.8189C24.373 26.031 24.0764 26.1951 23.7417 26.3111C23.4102 26.4271 23.0572 26.4851 22.6827 26.4851C22.0828 26.4851 21.5475 26.3442 21.0769 26.0625C20.6062 25.7808 20.235 25.393 19.9632 24.8991C19.6915 24.4053 19.5556 23.8419 19.5556 23.2088C19.5523 22.526 19.7097 21.9179 20.0279 21.3842C20.3461 20.8506 20.7902 20.433 21.3603 20.1314C21.9337 19.8265 22.5998 19.6757 23.3588 19.679ZM23.3738 21.3693C23.039 21.3693 22.7407 21.4489 22.4789 21.608C22.2203 21.767 22.0149 21.9808 21.8624 22.2493C21.7132 22.5178 21.6403 22.8177 21.6436 23.1491C21.6436 23.4839 21.7166 23.7855 21.8624 24.054C22.0115 24.3191 22.2137 24.5312 22.4689 24.6903C22.7275 24.8461 23.0224 24.924 23.3539 24.924C23.6025 24.924 23.8328 24.8776 24.0449 24.7848C24.257 24.692 24.441 24.5644 24.5968 24.402C24.7559 24.2363 24.8801 24.0457 24.9696 23.8303C25.0591 23.6148 25.1039 23.3861 25.1039 23.1442C25.1006 22.8227 25.0243 22.5277 24.8752 22.2592C24.726 21.9908 24.5205 21.7753 24.2587 21.6129C23.9969 21.4505 23.7019 21.3693 23.3738 21.3693ZM32.601 19.679C33.1247 19.679 33.6285 19.7668 34.1124 19.9425C34.5996 20.1181 35.0338 20.3982 35.415 20.7827C35.7994 21.1671 36.1027 21.6776 36.3248 22.3139C36.5501 22.947 36.6645 23.7242 36.6678 24.6456C36.6678 25.5107 36.57 26.2829 36.3745 26.9624C36.1822 27.6385 35.9055 28.2135 35.5442 28.6875C35.1829 29.1615 34.7471 29.5227 34.2367 29.7713C33.7263 30.0166 33.1562 30.1392 32.5265 30.1392C31.847 30.1392 31.2471 30.0083 30.7267 29.7464C30.2064 29.4813 29.7871 29.1217 29.4689 28.6676C29.1541 28.2102 28.9635 27.6965 28.8972 27.1264H31.0201C31.1029 27.4976 31.2769 27.786 31.5421 27.9915C31.8072 28.1937 32.1354 28.2947 32.5265 28.2947C33.1893 28.2947 33.6931 28.0064 34.0378 27.4297C34.3825 26.8497 34.5565 26.0559 34.5598 25.0483H34.4902C34.3378 25.3466 34.1323 25.6035 33.8738 25.8189C33.6152 26.031 33.3186 26.1951 32.9838 26.3111C32.6524 26.4271 32.2994 26.4851 31.9249 26.4851C31.325 26.4851 30.7897 26.3442 30.3191 26.0625C29.8484 25.7808 29.4772 25.393 29.2054 24.8991C28.9337 24.4053 28.7978 23.8419 28.7978 23.2088C28.7944 22.526 28.9519 21.9179 29.2701 21.3842C29.5882 20.8506 30.0324 20.433 30.6025 20.1314C31.1758 19.8265 31.842 19.6757 32.601 19.679ZM32.6159 21.3693C32.2812 21.3693 31.9829 21.4489 31.7211 21.608C31.4625 21.767 31.257 21.9808 31.1046 22.2493C30.9554 22.5178 30.8825 22.8177 30.8858 23.1491C30.8858 23.4839 30.9587 23.7855 31.1046 24.054C31.2537 24.3191 31.4559 24.5312 31.7111 24.6903C31.9696 24.8461 32.2646 24.924 32.5961 24.924C32.8446 24.924 33.075 24.8776 33.2871 24.7848C33.4992 24.692 33.6832 24.5644 33.839 24.402C33.998 24.2363 34.1223 24.0457 34.2118 23.8303C34.3013 23.6148 34.3461 23.3861 34.3461 23.1442C34.3427 22.8227 34.2665 22.5277 34.1174 22.2592C33.9682 21.9908 33.7627 21.7753 33.5009 21.6129C33.2391 21.4505 32.9441 21.3693 32.6159 21.3693Z" fill="black" fill-opacity="0.5"/>
</svg>
