<svg width="50" height="50" viewBox="0 0 50 50" fill="none" xmlns="http://www.w3.org/2000/svg">
<rect width="50" height="50" rx="25" fill="white" fill-opacity="0.5"/>
<rect x="4" y="4" width="42" height="42" rx="21" fill="white"/>
<path d="M20.0092 19.679C20.5329 19.679 21.0367 19.7668 21.5206 19.9425C22.0078 20.1181 22.442 20.3982 22.8232 20.7827C23.2076 21.1671 23.5109 21.6776 23.733 22.3139C23.9583 22.947 24.0727 23.7242 24.076 24.6456C24.076 25.5107 23.9782 26.2829 23.7827 26.9624C23.5904 27.6385 23.3137 28.2135 22.9524 28.6875C22.5911 29.1615 22.1553 29.5227 21.6449 29.7713C21.1345 30.0166 20.5644 30.1392 19.9347 30.1392C19.2552 30.1392 18.6553 30.0083 18.1349 29.7464C17.6146 29.4813 17.1953 29.1217 16.8771 28.6676C16.5623 28.2102 16.3717 27.6965 16.3054 27.1264H18.4283C18.5111 27.4976 18.6851 27.786 18.9503 27.9915C19.2154 28.1937 19.5436 28.2947 19.9347 28.2947C20.5975 28.2947 21.1013 28.0064 21.446 27.4297C21.7907 26.8497 21.9647 26.0559 21.968 25.0483H21.8984C21.746 25.3466 21.5405 25.6035 21.282 25.8189C21.0234 26.031 20.7268 26.1951 20.392 26.3111C20.0606 26.4271 19.7076 26.4851 19.3331 26.4851C18.7332 26.4851 18.1979 26.3442 17.7273 26.0625C17.2566 25.7808 16.8854 25.393 16.6136 24.8991C16.3419 24.4053 16.206 23.8419 16.206 23.2088C16.2027 22.526 16.3601 21.9179 16.6783 21.3842C16.9964 20.8506 17.4406 20.433 18.0107 20.1314C18.584 19.8265 19.2502 19.6757 20.0092 19.679ZM20.0241 21.3693C19.6894 21.3693 19.3911 21.4489 19.1293 21.608C18.8707 21.767 18.6652 21.9808 18.5128 22.2493C18.3636 22.5178 18.2907 22.8177 18.294 23.1491C18.294 23.4839 18.367 23.7855 18.5128 24.054C18.6619 24.3191 18.8641 24.5312 19.1193 24.6903C19.3778 24.8461 19.6728 24.924 20.0043 24.924C20.2528 24.924 20.4832 24.8776 20.6953 24.7848C20.9074 24.692 21.0914 24.5644 21.2472 24.402C21.4063 24.2363 21.5305 24.0457 21.62 23.8303C21.7095 23.6148 21.7543 23.3861 21.7543 23.1442C21.7509 22.8227 21.6747 22.5277 21.5256 22.2592C21.3764 21.9908 21.1709 21.7753 20.9091 21.6129C20.6473 21.4505 20.3523 21.3693 20.0241 21.3693ZM29.331 30.1392C28.5885 30.1392 27.9273 30.0116 27.3473 29.7564C26.7706 29.4979 26.3149 29.1432 25.9801 28.6925C25.6487 28.2384 25.478 27.7147 25.468 27.1214H27.6357C27.6489 27.37 27.7301 27.5888 27.8793 27.7777C28.0317 27.9633 28.2339 28.1075 28.4858 28.2102C28.7377 28.313 29.0211 28.3643 29.3359 28.3643C29.6641 28.3643 29.9541 28.3063 30.206 28.1903C30.4579 28.0743 30.6551 27.9136 30.7976 27.7081C30.9401 27.5026 31.0114 27.2656 31.0114 26.9972C31.0114 26.7254 30.9351 26.4851 30.7827 26.2763C30.6335 26.0642 30.4181 25.8984 30.1364 25.7791C29.858 25.6598 29.5265 25.6001 29.142 25.6001H28.1925V24.0192H29.142C29.4669 24.0192 29.7536 23.9628 30.0021 23.8501C30.254 23.7375 30.4496 23.5817 30.5888 23.3828C30.728 23.1806 30.7976 22.9453 30.7976 22.6768C30.7976 22.4216 30.7363 22.1979 30.6136 22.0057C30.4943 21.8101 30.3253 21.6577 30.1065 21.5483C29.8911 21.4389 29.6392 21.3842 29.3509 21.3842C29.0592 21.3842 28.7924 21.4373 28.5504 21.5433C28.3085 21.6461 28.1146 21.7936 27.9688 21.9858C27.8229 22.178 27.745 22.4034 27.7351 22.6619H25.6719C25.6818 22.0753 25.8492 21.5582 26.174 21.1108C26.4988 20.6634 26.9363 20.3137 27.4865 20.0618C28.04 19.8066 28.6648 19.679 29.3608 19.679C30.0634 19.679 30.6783 19.8066 31.2053 20.0618C31.7322 20.317 32.1416 20.6617 32.4332 21.0959C32.7282 21.5268 32.8741 22.0107 32.8707 22.5476C32.8741 23.1177 32.6967 23.5933 32.3388 23.9744C31.9841 24.3556 31.5218 24.5975 30.9517 24.7003V24.7798C31.7008 24.8759 32.2708 25.1361 32.6619 25.5604C33.0563 25.9813 33.2519 26.5083 33.2486 27.1413C33.2519 27.7214 33.0845 28.2367 32.7464 28.6875C32.4117 29.1383 31.9493 29.4929 31.3594 29.7514C30.7694 30.0099 30.0933 30.1392 29.331 30.1392Z" fill="#021A84"/>
<path d="M20.0092 19.679C20.5329 19.679 21.0367 19.7668 21.5206 19.9425C22.0078 20.1181 22.442 20.3982 22.8232 20.7827C23.2076 21.1671 23.5109 21.6776 23.733 22.3139C23.9583 22.947 24.0727 23.7242 24.076 24.6456C24.076 25.5107 23.9782 26.2829 23.7827 26.9624C23.5904 27.6385 23.3137 28.2135 22.9524 28.6875C22.5911 29.1615 22.1553 29.5227 21.6449 29.7713C21.1345 30.0166 20.5644 30.1392 19.9347 30.1392C19.2552 30.1392 18.6553 30.0083 18.1349 29.7464C17.6146 29.4813 17.1953 29.1217 16.8771 28.6676C16.5623 28.2102 16.3717 27.6965 16.3054 27.1264H18.4283C18.5111 27.4976 18.6851 27.786 18.9503 27.9915C19.2154 28.1937 19.5436 28.2947 19.9347 28.2947C20.5975 28.2947 21.1013 28.0064 21.446 27.4297C21.7907 26.8497 21.9647 26.0559 21.968 25.0483H21.8984C21.746 25.3466 21.5405 25.6035 21.282 25.8189C21.0234 26.031 20.7268 26.1951 20.392 26.3111C20.0606 26.4271 19.7076 26.4851 19.3331 26.4851C18.7332 26.4851 18.1979 26.3442 17.7273 26.0625C17.2566 25.7808 16.8854 25.393 16.6136 24.8991C16.3419 24.4053 16.206 23.8419 16.206 23.2088C16.2027 22.526 16.3601 21.9179 16.6783 21.3842C16.9964 20.8506 17.4406 20.433 18.0107 20.1314C18.584 19.8265 19.2502 19.6757 20.0092 19.679ZM20.0241 21.3693C19.6894 21.3693 19.3911 21.4489 19.1293 21.608C18.8707 21.767 18.6652 21.9808 18.5128 22.2493C18.3636 22.5178 18.2907 22.8177 18.294 23.1491C18.294 23.4839 18.367 23.7855 18.5128 24.054C18.6619 24.3191 18.8641 24.5312 19.1193 24.6903C19.3778 24.8461 19.6728 24.924 20.0043 24.924C20.2528 24.924 20.4832 24.8776 20.6953 24.7848C20.9074 24.692 21.0914 24.5644 21.2472 24.402C21.4063 24.2363 21.5305 24.0457 21.62 23.8303C21.7095 23.6148 21.7543 23.3861 21.7543 23.1442C21.7509 22.8227 21.6747 22.5277 21.5256 22.2592C21.3764 21.9908 21.1709 21.7753 20.9091 21.6129C20.6473 21.4505 20.3523 21.3693 20.0241 21.3693ZM29.331 30.1392C28.5885 30.1392 27.9273 30.0116 27.3473 29.7564C26.7706 29.4979 26.3149 29.1432 25.9801 28.6925C25.6487 28.2384 25.478 27.7147 25.468 27.1214H27.6357C27.6489 27.37 27.7301 27.5888 27.8793 27.7777C28.0317 27.9633 28.2339 28.1075 28.4858 28.2102C28.7377 28.313 29.0211 28.3643 29.3359 28.3643C29.6641 28.3643 29.9541 28.3063 30.206 28.1903C30.4579 28.0743 30.6551 27.9136 30.7976 27.7081C30.9401 27.5026 31.0114 27.2656 31.0114 26.9972C31.0114 26.7254 30.9351 26.4851 30.7827 26.2763C30.6335 26.0642 30.4181 25.8984 30.1364 25.7791C29.858 25.6598 29.5265 25.6001 29.142 25.6001H28.1925V24.0192H29.142C29.4669 24.0192 29.7536 23.9628 30.0021 23.8501C30.254 23.7375 30.4496 23.5817 30.5888 23.3828C30.728 23.1806 30.7976 22.9453 30.7976 22.6768C30.7976 22.4216 30.7363 22.1979 30.6136 22.0057C30.4943 21.8101 30.3253 21.6577 30.1065 21.5483C29.8911 21.4389 29.6392 21.3842 29.3509 21.3842C29.0592 21.3842 28.7924 21.4373 28.5504 21.5433C28.3085 21.6461 28.1146 21.7936 27.9688 21.9858C27.8229 22.178 27.745 22.4034 27.7351 22.6619H25.6719C25.6818 22.0753 25.8492 21.5582 26.174 21.1108C26.4988 20.6634 26.9363 20.3137 27.4865 20.0618C28.04 19.8066 28.6648 19.679 29.3608 19.679C30.0634 19.679 30.6783 19.8066 31.2053 20.0618C31.7322 20.317 32.1416 20.6617 32.4332 21.0959C32.7282 21.5268 32.8741 22.0107 32.8707 22.5476C32.8741 23.1177 32.6967 23.5933 32.3388 23.9744C31.9841 24.3556 31.5218 24.5975 30.9517 24.7003V24.7798C31.7008 24.8759 32.2708 25.1361 32.6619 25.5604C33.0563 25.9813 33.2519 26.5083 33.2486 27.1413C33.2519 27.7214 33.0845 28.2367 32.7464 28.6875C32.4117 29.1383 31.9493 29.4929 31.3594 29.7514C30.7694 30.0099 30.0933 30.1392 29.331 30.1392Z" fill="black" fill-opacity="0.5"/>
</svg>
